<?xml version="1.0" standalone="no"?>
<!DOCTYPE svg PUBLIC "-//W3C//DTD SVG 20010904//EN"
 "http://www.w3.org/TR/2001/REC-SVG-20010904/DTD/svg10.dtd">
<svg version="1.0" xmlns="http://www.w3.org/2000/svg"
 width="162.000000pt" height="162.000000pt" viewBox="0 0 162.000000 162.000000"
 preserveAspectRatio="xMidYMid meet">
<metadata>
Created by potrace 1.11, written by Peter Selinger 2001-2013
</metadata>
<g transform="translate(0.000000,162.000000) scale(0.100000,-0.100000)"
fill="#000000" stroke="none">
<path d="M694 810 l1 -600 57 0 58 0 0 175 c0 197 7 227 61 267 99 74 242 48
295 -54 12 -22 15 -69 16 -208 l1 -180 58 0 59 0 -3 187 c-3 166 -6 194 -24
235 -70 154 -263 222 -411 146 l-52 -27 0 329 0 330 -58 0 -58 0 0 -600z"/>
<path d="M207 796 c-134 -49 -212 -166 -203 -304 10 -151 121 -266 267 -279
99 -9 202 30 257 98 l22 28 -45 31 -45 31 -37 -29 c-69 -54 -141 -61 -213 -21
-35 20 -88 84 -78 95 3 3 107 5 231 5 168 0 228 3 234 12 14 23 2 122 -21 172
-50 107 -142 168 -261 172 -42 2 -85 -2 -108 -11z m196 -134 c21 -15 48 -42
59 -59 l20 -33 -176 0 c-97 0 -176 3 -176 7 0 16 47 73 74 89 66 39 140 37
199 -4z"/>
<path d="M1401 301 c-16 -29 -13 -56 7 -74 47 -43 116 8 89 64 -17 33 -81 40
-96 10z"/>
</g>
</svg>
