<?xml version="1.0" encoding="utf-8"?>
<!-- Generator: Adobe Illustrator 21.0.0, SVG Export Plug-In . SVG Version: 6.00 Build 0)  -->
<svg version="1.1" id="Layer_1" xmlns="http://www.w3.org/2000/svg" xmlns:xlink="http://www.w3.org/1999/xlink" x="0px" y="0px"
	 viewBox="0 0 30 30" style="enable-background:new 0 0 30 30;" xml:space="preserve">
	<path class="img-social-media-icon-colour" d="M9.1,6.5c-1,0-1.9,0.9-1.9,1.9s0.9,1.9,1.9,1.9S11,9.4,11,8.4S10.1,6.5,9.1,6.5z"/>
	<rect x="7.3" y="11.8" class="img-social-media-icon-colour" width="3.7" height="9.7"/>
	<path class="img-social-media-icon-colour" d="M22.7,16c0-4-2.4-4.7-3.8-4.7s-2.1,0.5-3.1,1.7v-1.1h-3.2v9.7h3.2v-5.2c0-1.2,0.5-2.3,1.7-2.3s1.5,1.1,1.5,2.2
		v5.3h3.7C22.7,21.6,22.7,16,22.7,16z"/>

</svg>
