<?xml version="1.0" encoding="utf-8"?>
<!-- Generator: Adobe Illustrator 21.0.0, SVG Export Plug-In . SVG Version: 6.00 Build 0)  -->
<svg version="1.1" xmlns="http://www.w3.org/2000/svg" xmlns:xlink="http://www.w3.org/1999/xlink" x="0px" y="0px"
	 viewBox="0 0 30 30" style="enable-background:new 0 0 30 30;" xml:space="preserve">
<style type="text/css">
	.st0{opacity:0.5;}
	.st1{fill:#FF3A15;}
	.st2{fill:#464646;}
</style>
<g id="Layer_1">
	<g class="st0">
		<circle class="st1" cx="15" cy="15" r="15"/>
	</g>
</g>
<g id="Layer">
	<path class="st2" d="M24.5,6l-0.2,0.3c-1.8,2.3-4.1,3.9-6.9,5.1l-0.7,0.4l0.4,0.8c0.3,0.7,0.7,1.5,1,2.2l0.3,0.5l0.6-0.1
		c1.1-0.2,2.3-0.3,3.5-0.3c1.6,0,3.3,0.2,5.2,0.5l0.6,0.1c0-0.2,0-0.3,0-0.4C28.1,11.5,26.7,8.3,24.5,6z M11.3,2.4L11.3,2.4
		c1.8,2.4,3.3,5,4.6,7.6l0.3,0.6l0.6-0.3c2.8-1.1,5.1-2.8,6.8-5V5.3c-2.3-2.1-5.3-3.4-8.8-3.4C13.7,1.9,12.5,2,11.3,2.4z M2.1,12.6
		l0.5,0.1c4.9,0,8.7-0.4,11.8-1.3l1-0.3L15,10.2c-1.8-3.2-3.5-5.8-4.7-7.4C6.1,4.3,2.9,8.1,2.1,12.6z M5.8,24.4L6.1,24
		c2.9-4.4,6.3-7.1,10.4-8.4l0.9-0.3L17,14.6c-0.3-0.7-0.6-1.3-0.9-2l-0.3-0.6l-0.6,0.2c-3.4,1.1-7.3,1.5-12.8,1.5H2
		C1.9,14,1.9,14.5,1.9,15C1.9,18.7,3.4,22,5.8,24.4z M20.5,26.9c-0.4-3.2-1.3-6.6-2.5-9.9l-0.3-0.7L17,16.5
		c-5.5,1.6-8.6,5.5-10.4,8.4L6.5,25c2.3,1.9,5.2,3.1,8.4,3.1C17,28.1,18.9,27.7,20.5,26.9z M28,16.4l-0.4-0.1
		c-1.8-0.3-3.6-0.5-5.2-0.5c-1,0-1.8,0.1-2.8,0.2l-1,0.1l0.4,1c1.1,3,1.9,6,2.4,8.8l0.1,0.5C25.1,24.4,27.6,20.7,28,16.4z M15,29
		C7.3,29,1,22.7,1,15S7.3,1,15,1s14,6.3,14,14S22.7,29,15,29z"/>
</g>
</svg>
