<?xml version="1.0" encoding="utf-8"?>
<!-- Generator: Adobe Illustrator 21.0.0, SVG Export Plug-In . SVG Version: 6.00 Build 0)  -->
<svg version="1.1" id="Layer_1" xmlns="http://www.w3.org/2000/svg" xmlns:xlink="http://www.w3.org/1999/xlink" x="0px" y="0px"
	 viewBox="0 0 30 30" style="enable-background:new 0 0 30 30;" xml:space="preserve">
<style type="text/css">
	.st0{fill:#464646;}
</style>
<path class="st0" d="M23,21.8H7c-1,0-1.8-0.8-1.8-1.8V10C5.2,9,6,8.2,7,8.2h16c1,0,1.8,0.8,1.8,1.8v10C24.8,21,24,21.8,23,21.8z
	 M7,9.8c-0.1,0-0.2,0.1-0.2,0.2v10c0,0.1,0.1,0.2,0.2,0.2h16c0.1,0,0.2-0.1,0.2-0.2V10c0-0.1-0.1-0.2-0.2-0.2H7z"/>
<path class="st0" d="M15,17.8c-0.1,0-0.3,0-0.4-0.1l-9-6c-0.3-0.2-0.4-0.7-0.2-1s0.7-0.4,1-0.2l9,6c0.3,0.2,0.4,0.7,0.2,1
	C15.5,17.6,15.2,17.8,15,17.8z"/>
<path class="st0" d="M15,17.8c-0.2,0-0.5-0.1-0.6-0.3c-0.2-0.3-0.1-0.8,0.2-1l9-6c0.3-0.2,0.8-0.1,1,0.2s0.1,0.8-0.2,1l-9,6
	C15.3,17.7,15.1,17.8,15,17.8z"/>
</svg>
