<?xml version="1.0" encoding="utf-8"?>
<!-- Generator: Adobe Illustrator 21.0.0, SVG Export Plug-In . SVG Version: 6.00 Build 0)  -->
<svg version="1.1" id="Layer_1" xmlns="http://www.w3.org/2000/svg" xmlns:xlink="http://www.w3.org/1999/xlink" x="0px" y="0px"
	 viewBox="0 0 30 30" style="enable-background:new 0 0 30 30;" xml:space="preserve">
<style type="text/css">
	.st0{display:none;}
</style>

<path class="img-social-media-icon-colour" d="M18.5,24.2h-7c-3.2,0-5.8-2.5-5.8-5.8v-7c0-3.2,2.5-5.8,5.8-5.8h7c3.2,0,5.8,2.5,5.8,5.8v7
	C24.2,21.7,21.7,24.2,18.5,24.2z M11.5,7.2c-2.4,0-4.2,1.9-4.2,4.2v7c0,2.4,1.9,4.2,4.2,4.2h7c2.4,0,4.2-1.9,4.2-4.2v-7
	c0-2.4-1.9-4.2-4.2-4.2H11.5z"/>
<path class="img-social-media-icon-colour" d="M15,19.2c-2.3,0-4.2-1.9-4.2-4.2c0-2.3,1.9-4.2,4.2-4.2c2.3,0,4.2,1.9,4.2,4.2C19.2,17.3,17.3,19.2,15,19.2z
	 M15,12.2c-1.5,0-2.8,1.2-2.8,2.8s1.2,2.8,2.8,2.8s2.8-1.2,2.8-2.8S16.5,12.2,15,12.2z"/>
<g id="Layer_1_1_" class="st0">
	<path class="img-social-media-icon-colour" d="M15,19.5c-2.5,0-4.5-2-4.5-4.5s2-4.5,4.5-4.5s4.5,2,4.5,4.5S17.5,19.5,15,19.5z M15,11.1
		c-2.1,0-3.9,1.7-3.9,3.9s1.7,3.9,3.9,3.9s3.9-1.7,3.9-3.9S17.1,11.1,15,11.1z"/>
	<circle class="img-social-media-icon-colour" cx="20.5" cy="9.5" r="1.2"/>
	<path class="img-social-media-icon-colour" d="M15,25c-2.6,0-3,0-4-0.1s-1.7-0.2-2.5-0.5s-1.4-0.6-1.9-1.2C6,22.6,5.7,22,5.4,21.3C5.1,20.7,5,20,4.9,18.8
		C5,18,5,17.6,5,15s0-3,0.1-4s0.2-1.7,0.5-2.5s0.6-1.4,1.2-1.9S8,5.8,8.7,5.4C9.1,5.3,9.8,5.1,11,5.1C12,5,12.4,5,15,5s3,0,4,0.1
		s1.7,0.2,2.5,0.5s1.4,0.6,1.9,1.2C24,7.4,24.3,8,24.6,8.7c0.3,0.6,0.4,1.3,0.5,2.5c0.1,1,0.1,1.4,0.1,4s0,3-0.1,4s-0.2,1.7-0.5,2.5
		s-0.6,1.4-1.2,1.9c-0.6,0.6-1.2,0.9-1.9,1.2c-0.6,0.3-1.3,0.4-2.5,0.5C18,25,17.6,25,15,25z M15,5.6c-2.6,0-3,0-4,0.1
		S9.3,5.9,8.8,6.2c-0.6,0.3-1.1,0.6-1.7,1c-0.4,0.4-0.7,0.9-1,1.6C5.8,9.5,5.7,10,5.6,11s-0.1,1.4-0.1,4s0,3,0.1,4s0.2,1.7,0.5,2.2
		c0.3,0.6,0.6,1.1,1,1.7c0.4,0.4,0.9,0.7,1.6,1c0.6,0.3,1.2,0.4,2.2,0.5s1.4,0.1,4,0.1s3,0,4-0.1s1.7-0.2,2.2-0.5
		c0.6-0.3,1.1-0.6,1.7-1c0.4-0.4,0.7-0.9,1-1.6c0.3-0.6,0.4-1.2,0.5-2.2s0.1-1.4,0.1-4s0-3-0.1-4s-0.2-1.7-0.5-2.2
		c-0.3-0.6-0.6-1.1-1-1.7c-0.4-0.4-0.9-0.7-1.6-1C20.5,5.9,20,5.8,19,5.7C18,5.6,17.6,5.6,15,5.6z"/>
</g>
<circle class="img-social-media-icon-colour" cx="20" cy="10" r="1.2"/>
</svg>
