<?xml version="1.0" encoding="utf-8"?>
<!-- Generator: Adobe Illustrator 21.0.0, SVG Export Plug-In . SVG Version: 6.00 Build 0)  -->
<svg version="1.1" id="Layer_1" xmlns="http://www.w3.org/2000/svg" xmlns:xlink="http://www.w3.org/1999/xlink" x="0px" y="0px"
	 viewBox="0 0 30 30" style="enable-background:new 0 0 30 30;" xml:space="preserve">
<style type="text/css">
	.twitter-fill{fill:#464646;}
</style>
<g id="Layer">
	<g id="XMLID_1_">
		<g>
			<path class="img-social-media-icon-colour" d="M8.8,16.5c0.2,0.1,0.4,0.1,0.6,0.1c0.3,0,0.6-0.1,0.9-0.1c-1.5-0.3-2.7-1.8-2.7-3.4V13
				c0.4,0.2,1,0.4,1.5,0.4c-0.9-0.6-1.5-1.7-1.5-2.9c0-0.7,0.2-1.3,0.4-1.7c1.6,2.1,4.1,3.5,6.9,3.7c-0.1-0.2-0.1-0.5-0.1-0.8
				c0-2,1.5-3.6,3.3-3.6c1,0,1.8,0.4,2.4,1.1C21.3,9,22,8.8,22.7,8.3c-0.2,0.8-0.8,1.5-1.4,1.9c0.7-0.1,1.3-0.3,1.9-0.5
				c-0.4,0.7-1,1.3-1.6,1.8c0,0.1,0,0.3,0,0.5c0,4.6-3.3,9.9-9.5,9.9c-1.9,0-3.6-0.6-5.1-1.6c0.2,0,0.5,0.1,0.7,0.1
				c1.6,0,3-0.5,4.1-1.5C10.4,18.9,9.2,17.9,8.8,16.5z"/>
		</g>
	</g>
</g>
</svg>
